<svg xmlns="http://www.w3.org/2000/svg" viewBox="0 0 811.74 135.82">
  <defs>
    <style>
      .a {
        fill: #fff;
      }
    </style>
  </defs>
  <title>logo4</title>
  <g>
    <path class="a" d="M154.09,239.16c4.59-1.86,27.73-6.08,43.24,6,.43,11.84-3.72,26.42-7.82,35.59C185,265.67,162,243.82,154.09,239.16Z" transform="translate(-19.6 -217.31)"/>
    <path class="a" d="M122,276c.7-4.91,8.6-27.05,26.78-34.47,10.47,5.55,21,16.43,26.91,24.57C160.47,262.5,130,271.53,122,276Z" transform="translate(-19.6 -217.31)"/>
    <path class="a" d="M138.5,322c-3.91-3.06-19.13-21-16.47-40.43,10-6.29,24.74-10,34.74-11C146,281.92,138.59,312.8,138.5,322Z" transform="translate(-19.6 -217.31)"/>
    <path class="a" d="M186.46,331.29c-4.59,1.85-27.73,6.07-43.24-6-.43-11.84,3.73-26.42,7.83-35.59C155.52,304.78,178.56,326.62,186.46,331.29Z" transform="translate(-19.6 -217.31)"/>
    <path class="a" d="M218.1,294c-.69,4.91-8.6,27-26.77,34.48-10.47-5.55-21-16.44-26.91-24.58C179.67,307.51,210.11,298.48,218.1,294Z" transform="translate(-19.6 -217.31)"/>
    <path class="a" d="M202.18,247.78c3.91,3.05,19.13,21,16.47,40.42-10,6.29-24.74,10-34.74,11C194.69,287.83,202.09,257,202.18,247.78Z" transform="translate(-19.6 -217.31)"/>
  </g>
  <path class="a" d="M19.6,301.39A215.36,215.36,0,0,1,75.88,248a207.36,207.36,0,0,1,34.88-18.19A176.77,176.77,0,0,1,149,219.27a145.67,145.67,0,0,1,40.37-1q5.09.68,10.13,1.85c1.68.39,3.34.89,5,1.33s3.32,1,4.94,1.62a86.3,86.3,0,0,1,18.61,9.41,82.89,82.89,0,0,1,27.36,30.71,89.52,89.52,0,0,1,9.73,38.51l-1.45.27c-4.48-12.14-9.91-23.53-17.18-33.3A86.86,86.86,0,0,0,220.19,245,109.6,109.6,0,0,0,187,232.73,119.81,119.81,0,0,0,150.54,231a167.13,167.13,0,0,0-36.39,8.08,198.52,198.52,0,0,0-34.45,15.3,223.28,223.28,0,0,0-58.95,47.95Z" transform="translate(-19.6 -217.31)"/>
  <path class="a" d="M321.08,269.05A215.21,215.21,0,0,1,264.8,322.4a208,208,0,0,1-34.87,18.2,177.58,177.58,0,0,1-38.27,10.58,145.61,145.61,0,0,1-40.36,1c-3.4-.44-6.78-1.07-10.14-1.84-1.68-.4-3.33-.89-5-1.34s-3.31-1-4.94-1.61a86.34,86.34,0,0,1-18.61-9.42,82.86,82.86,0,0,1-27.36-30.7,89.74,89.74,0,0,1-9.73-38.51l1.46-.28c4.47,12.14,9.91,23.54,17.17,33.31a87,87,0,0,0,26.34,23.68,109.85,109.85,0,0,0,33.18,12.27,119.51,119.51,0,0,0,36.47,1.74,166.55,166.55,0,0,0,36.39-8.08A199.24,199.24,0,0,0,261,316.08a223.52,223.52,0,0,0,58.95-47.95Z" transform="translate(-19.6 -217.31)"/>
  <g>
    <path class="a" d="M368.91,232.1H352.85v26.14h14.79v5.5H352.85v31.81h-6.12V226.68h22.18Z" transform="translate(-19.6 -217.31)"/>
    <path class="a" d="M401.26,290.58c0,3.32-1.66,5-5,5H381.59c-3.29,0-4.93-1.65-4.93-5V257.71c0-3.32,1.64-5,4.93-5h14.69c3.32,0,5,1.65,5,5Zm-5.86-.17V257.88H382.51v32.53Z" transform="translate(-19.6 -217.31)"/>
    <path class="a" d="M426.21,295.55h-8.32c-3.29,0-4.93-1.65-4.93-5v-32.7h-5.15v-5.14H413V239.4h5.77v13.34h7.48v5.14h-7.48v32.53h7.48Z" transform="translate(-19.6 -217.31)"/>
    <path class="a" d="M458.29,290.58c0,3.32-1.66,5-5,5H438.62c-3.29,0-4.93-1.65-4.93-5V257.71c0-3.32,1.64-5,4.93-5h14.69c3.32,0,5,1.65,5,5Zm-5.86-.17V257.88H439.54v32.53Z" transform="translate(-19.6 -217.31)"/>
    <path class="a" d="M491.6,290.58c0,3.32-1.64,5-4.93,5H472.76c-3.28,0-4.92-1.65-4.92-5V257.71c0-3.32,1.64-5,4.92-5h13.91c3.29,0,4.93,1.65,4.93,5v8.54h-5.77v-8.37H473.69v32.53h12.14v-9.55h5.77Z" transform="translate(-19.6 -217.31)"/>
    <path class="a" d="M507.22,295.55h-5.76V226.68h5.76Z" transform="translate(-19.6 -217.31)"/>
    <path class="a" d="M541.68,295.55h-5.77v-1.19q-3.52.5-7,.93a58.66,58.66,0,0,1-7,.53q-4.75,0-4.76-4.76V252.74h5.77v37.58l13-.36V252.74h5.77Z" transform="translate(-19.6 -217.31)"/>
    <path class="a" d="M575.82,286.36a8.93,8.93,0,0,1-2.59,6.57,8.78,8.78,0,0,1-6.52,2.62H551.23V226.68h5.85v27.24L564,253a57.17,57.17,0,0,1,6.91-.57c3.26,0,4.88,1.6,4.88,4.8Zm-5.85-.88V258l-12.89.35v32.09h8.1C568.37,290.41,570,288.76,570,285.48Z" transform="translate(-19.6 -217.31)"/>
    <path class="a" d="M632.28,290.67a4.73,4.73,0,0,1-1.38,3.52,4.86,4.86,0,0,1-3.55,1.36H608.61a4.68,4.68,0,0,1-4.89-4.88v-64h6.12v63.46h16.32V226.68h6.12Z" transform="translate(-19.6 -217.31)"/>
    <path class="a" d="M648.79,243.36h-5.95V236h5.95Zm-.09,52.19h-5.77V252.74h5.77Z" transform="translate(-19.6 -217.31)"/>
    <path class="a" d="M674,295.55h-8.31c-3.29,0-4.93-1.65-4.93-5v-32.7h-5.15v-5.14h5.15V239.4h5.76v13.34H674v5.14h-7.48v32.53H674Z" transform="translate(-19.6 -217.31)"/>
    <path class="a" d="M705.86,306.82q0,5-5,5H687q-5.06,0-5.06-6.29c0-.5,0-1.24.07-2.22s.06-1.7.06-2.14h5.77v5.68h12.23V295.55h-9.64a8.77,8.77,0,0,1-6.51-2.62,8.94,8.94,0,0,1-2.6-6.57v-25a9.1,9.1,0,0,1,2.29-6.32,7.78,7.78,0,0,1,6-2.53c.67,0,4.15.49,10.43,1.45v-1.18h5.81Zm-5.81-16.41V258.06c-4.64-.29-7.33-.44-8.1-.44-3.22,0-4.84,1.64-4.84,4.93v22.93c0,3.28,1.62,4.93,4.84,4.93Z" transform="translate(-19.6 -217.31)"/>
    <path class="a" d="M739.43,290.58c0,3.32-1.64,5-4.92,5H720.43c-3.29,0-4.93-1.65-4.93-5V257.71c0-3.32,1.64-5,4.93-5h14.08c3.28,0,4.92,1.65,4.92,5v15.4l-2,2.07H721.17v15.49h12.59v-7.83h5.67Zm-5.67-20.07V257.62H721.17v12.89Z" transform="translate(-19.6 -217.31)"/>
    <path class="a" d="M773.06,290.58c0,3.32-1.65,5-4.93,5H754c-3.28,0-4.92-1.65-4.92-5V257.71c0-3.32,1.64-5,4.92-5h14.09c3.28,0,4.93,1.65,4.93,5v15.4l-2,2.07H754.79v15.49h12.59v-7.83h5.68Zm-5.68-20.07V257.62H754.79v12.89Z" transform="translate(-19.6 -217.31)"/>
    <path class="a" d="M805.8,290.58c0,3.32-1.66,5-5,5H787.4c-3.32,0-5-1.65-5-5v-9.72h5.76v9.63H800V282l-15.31-12.55a5.56,5.56,0,0,1-2.2-4.57v-7.13c0-3.32,1.65-5,5-5h13.24c3.32,0,5,1.65,5,5v8.54H800V257.8H788.19v7.48l15.45,12.54a5.63,5.63,0,0,1,2.16,4.66Z" transform="translate(-19.6 -217.31)"/>
    <path class="a" d="M830.48,295.55h-8.32c-3.28,0-4.92-1.65-4.92-5v-32.7h-5.15v-5.14h5.15V239.4H823v13.34h7.48v5.14H823v32.53h7.48Z" transform="translate(-19.6 -217.31)"/>
  </g>
  <g>
    <path class="a" d="M358.78,336.68a.6.6,0,0,1,.07.29.2.2,0,0,1-.09.17.56.56,0,0,1-.25.08h-.84a1,1,0,0,1-.25-.06.3.3,0,0,1-.13-.09s-.05-.09-.08-.14l-1.54-4.09h-7.08l-1.49,4.06a.37.37,0,0,1-.07.14.53.53,0,0,1-.14.11,1,1,0,0,1-.24.06,2.36,2.36,0,0,1-.4,0,2.69,2.69,0,0,1-.43,0,.53.53,0,0,1-.26-.08.26.26,0,0,1-.09-.17.75.75,0,0,1,.07-.28l5.65-14.59a.57.57,0,0,1,.11-.16.75.75,0,0,1,.2-.1l.28-.05.38,0,.4,0,.28.05a.67.67,0,0,1,.19.1.91.91,0,0,1,.11.16Zm-6.69-13.29h0L349,331.63h6.18Z" transform="translate(-19.6 -217.31)"/>
    <path class="a" d="M377.52,336.93a.22.22,0,0,1,0,.13.2.2,0,0,1-.11.09.94.94,0,0,1-.23.06,1.78,1.78,0,0,1-.35,0,2,2,0,0,1-.37,0,.94.94,0,0,1-.23-.06.19.19,0,0,1-.12-.09.31.31,0,0,1,0-.13v-6.6a5.83,5.83,0,0,0-.15-1.38,3,3,0,0,0-.44-1.07,2.34,2.34,0,0,0-.78-.69,2.38,2.38,0,0,0-1.1-.24,2.71,2.71,0,0,0-1.59.58,10.58,10.58,0,0,0-1.76,1.71v7.69a.33.33,0,0,1,0,.13.27.27,0,0,1-.12.09.85.85,0,0,1-.22.06,3.25,3.25,0,0,1-.72,0,1.09,1.09,0,0,1-.23-.06.2.2,0,0,1-.11-.09.22.22,0,0,1,0-.13v-6.6a5.83,5.83,0,0,0-.15-1.38,3.06,3.06,0,0,0-.45-1.07,2.22,2.22,0,0,0-.77-.69,2.39,2.39,0,0,0-1.11-.24,2.71,2.71,0,0,0-1.59.58,10.57,10.57,0,0,0-1.75,1.71v7.69a.22.22,0,0,1,0,.13.2.2,0,0,1-.11.09.94.94,0,0,1-.23.06,2,2,0,0,1-.37,0,1.78,1.78,0,0,1-.35,0,.94.94,0,0,1-.23-.06.19.19,0,0,1-.12-.09.31.31,0,0,1,0-.13V326.2a.31.31,0,0,1,0-.13.32.32,0,0,1,.12-.1l.22-.06h.69l.21.06a.36.36,0,0,1,.11.1.31.31,0,0,1,0,.13v1.52a7.42,7.42,0,0,1,1.84-1.49,3.66,3.66,0,0,1,1.74-.46,4.43,4.43,0,0,1,1.26.16,3,3,0,0,1,1,.45,3,3,0,0,1,.72.69,3.83,3.83,0,0,1,.49.89,12.67,12.67,0,0,1,1.1-1,6.92,6.92,0,0,1,1-.67,3.73,3.73,0,0,1,.9-.37,3.22,3.22,0,0,1,.86-.11,4,4,0,0,1,1.79.35,3.09,3.09,0,0,1,1.17,1,3.8,3.8,0,0,1,.64,1.41,7.29,7.29,0,0,1,.19,1.71Z" transform="translate(-19.6 -217.31)"/>
    <path class="a" d="M389.54,336.93a.22.22,0,0,1-.08.18.67.67,0,0,1-.21.09,1.73,1.73,0,0,1-.36,0,1.86,1.86,0,0,1-.36,0,.55.55,0,0,1-.23-.09.19.19,0,0,1-.08-.18v-1.2a5.87,5.87,0,0,1-1.68,1.21,4.49,4.49,0,0,1-1.9.42,5.57,5.57,0,0,1-1.59-.21,3.46,3.46,0,0,1-1.19-.63,2.83,2.83,0,0,1-.75-1,3.21,3.21,0,0,1-.26-1.3,3,3,0,0,1,.39-1.55,3.18,3.18,0,0,1,1.09-1.1,5.49,5.49,0,0,1,1.71-.65,10.19,10.19,0,0,1,2.22-.22h1.8v-.93a4.4,4.4,0,0,0-.15-1.21,2.1,2.1,0,0,0-.49-.88,2,2,0,0,0-.87-.54,4.19,4.19,0,0,0-1.31-.18,4.69,4.69,0,0,0-1.35.18,6.19,6.19,0,0,0-1,.38,8.33,8.33,0,0,0-.75.39,1.05,1.05,0,0,1-.41.17.32.32,0,0,1-.14,0,.21.21,0,0,1-.11-.08.43.43,0,0,1-.06-.17,1.66,1.66,0,0,1,0-.24,1.45,1.45,0,0,1,0-.4.63.63,0,0,1,.19-.3,3.32,3.32,0,0,1,.56-.35,8.15,8.15,0,0,1,.91-.37,8.73,8.73,0,0,1,1.12-.28,6.94,6.94,0,0,1,1.2-.1,6.44,6.44,0,0,1,1.95.26,3.15,3.15,0,0,1,1.29.77,2.82,2.82,0,0,1,.71,1.22,6,6,0,0,1,.21,1.66Zm-1.48-5.06H386a7.27,7.27,0,0,0-1.57.15,3.28,3.28,0,0,0-1.12.45,1.87,1.87,0,0,0-.89,1.66,1.89,1.89,0,0,0,.62,1.48,2.56,2.56,0,0,0,1.74.55,3.29,3.29,0,0,0,1.65-.44,7.22,7.22,0,0,0,1.63-1.33Z" transform="translate(-19.6 -217.31)"/>
    <path class="a" d="M398.84,336.29a1.49,1.49,0,0,1,0,.4.57.57,0,0,1-.14.24.84.84,0,0,1-.27.17l-.42.13-.5.08-.51,0a4.21,4.21,0,0,1-1.42-.21,2.25,2.25,0,0,1-1-.65,2.73,2.73,0,0,1-.55-1.09,6.66,6.66,0,0,1-.16-1.57v-6.67h-1.69a.31.31,0,0,1-.27-.15.73.73,0,0,1-.1-.44,2.13,2.13,0,0,1,0-.27,1.08,1.08,0,0,1,.08-.19A.32.32,0,0,1,392,326a.33.33,0,0,1,.15,0h1.69v-2.63a.25.25,0,0,1,0-.13.2.2,0,0,1,.12-.1.58.58,0,0,1,.23-.06,1.78,1.78,0,0,1,.35,0,2,2,0,0,1,.37,0,.53.53,0,0,1,.22.06.2.2,0,0,1,.12.1.18.18,0,0,1,0,.13V326h3.12a.37.37,0,0,1,.15,0,.32.32,0,0,1,.12.11,1.08,1.08,0,0,1,.08.19,2.13,2.13,0,0,1,0,.27.66.66,0,0,1-.11.44.31.31,0,0,1-.26.15h-3.12v6.48a3.7,3.7,0,0,0,.37,1.86,1.4,1.4,0,0,0,1.34.64,2.23,2.23,0,0,0,.54-.06,3.17,3.17,0,0,0,.43-.13l.32-.13a.56.56,0,0,1,.23-.06.2.2,0,0,1,.11,0,.15.15,0,0,1,.08.09.5.5,0,0,1,.05.16A1.72,1.72,0,0,1,398.84,336.29Z" transform="translate(-19.6 -217.31)"/>
    <path class="a" d="M410.75,331a.66.66,0,0,1-.24.59.8.8,0,0,1-.46.16h-7.69a7.14,7.14,0,0,0,.2,1.8,3.57,3.57,0,0,0,.68,1.38,3,3,0,0,0,1.24.88,4.88,4.88,0,0,0,1.87.31,6.6,6.6,0,0,0,1.4-.13,6.91,6.91,0,0,0,1.08-.29,6.28,6.28,0,0,0,.75-.29,1.49,1.49,0,0,1,.42-.13.25.25,0,0,1,.14,0,.27.27,0,0,1,.1.11.87.87,0,0,1,.05.19,2.36,2.36,0,0,1,0,.3.81.81,0,0,1,0,.16l0,.14a.52.52,0,0,1-.06.13.53.53,0,0,1-.1.12,2,2,0,0,1-.39.2,5.57,5.57,0,0,1-.84.3,12,12,0,0,1-1.22.27,8.77,8.77,0,0,1-1.49.11,6.68,6.68,0,0,1-2.32-.37,4.28,4.28,0,0,1-1.69-1.1,4.68,4.68,0,0,1-1-1.81,7.89,7.89,0,0,1-.36-2.5,7.4,7.4,0,0,1,.37-2.44,5,5,0,0,1,1.05-1.83,4.68,4.68,0,0,1,1.65-1.15,5.71,5.71,0,0,1,2.15-.39,5.22,5.22,0,0,1,2.17.4,4.2,4.2,0,0,1,1.48,1.08,4.32,4.32,0,0,1,.85,1.58,6.66,6.66,0,0,1,.27,1.9Zm-1.54-.41a3.72,3.72,0,0,0-.82-2.67,3.19,3.19,0,0,0-2.51-1,3.51,3.51,0,0,0-1.49.31,3.21,3.21,0,0,0-1.08.8,3.4,3.4,0,0,0-.68,1.15,4.57,4.57,0,0,0-.27,1.37Z" transform="translate(-19.6 -217.31)"/>
    <path class="a" d="M423.26,336.93a.31.31,0,0,1,0,.13.19.19,0,0,1-.12.09.85.85,0,0,1-.22.06,1.67,1.67,0,0,1-.34,0,1.84,1.84,0,0,1-.36,0,.76.76,0,0,1-.21-.06.2.2,0,0,1-.11-.09.31.31,0,0,1,0-.13v-1.52a6.94,6.94,0,0,1-1.9,1.49,4.11,4.11,0,0,1-1.85.46,4.37,4.37,0,0,1-1.87-.35,3.22,3.22,0,0,1-1.23-1,3.92,3.92,0,0,1-.67-1.41,7.83,7.83,0,0,1-.21-1.94V326.2a.31.31,0,0,1,0-.13.32.32,0,0,1,.12-.1l.23-.06h.73l.22.06a.63.63,0,0,1,.12.1.33.33,0,0,1,0,.13v6.35a6.62,6.62,0,0,0,.16,1.63,3.29,3.29,0,0,0,.48,1.07,2.31,2.31,0,0,0,.83.69,2.73,2.73,0,0,0,1.18.24,3,3,0,0,0,1.72-.58,9.64,9.64,0,0,0,1.81-1.71V326.2a.31.31,0,0,1,0-.13.32.32,0,0,1,.12-.1l.23-.06h.72l.23.06a.63.63,0,0,1,.12.1.31.31,0,0,1,0,.13Z" transform="translate(-19.6 -217.31)"/>
    <path class="a" d="M433.69,326.75a2.36,2.36,0,0,1,0,.3.54.54,0,0,1,0,.2.63.63,0,0,1-.07.12.16.16,0,0,1-.12,0,.66.66,0,0,1-.26-.05l-.35-.11-.44-.12a2.78,2.78,0,0,0-.52-.05,1.66,1.66,0,0,0-.66.14,2.3,2.3,0,0,0-.68.44,4.92,4.92,0,0,0-.75.8c-.26.33-.55.73-.87,1.22v7.25a.22.22,0,0,1,0,.13.2.2,0,0,1-.11.09.94.94,0,0,1-.23.06,2,2,0,0,1-.37,0,1.78,1.78,0,0,1-.35,0,.94.94,0,0,1-.23-.06.19.19,0,0,1-.12-.09.31.31,0,0,1,0-.13V326.2a.31.31,0,0,1,0-.13.32.32,0,0,1,.12-.1l.22-.06h.69l.21.06a.36.36,0,0,1,.11.1.31.31,0,0,1,0,.13v1.7a9.54,9.54,0,0,1,.89-1.09,4.73,4.73,0,0,1,.79-.65,2.67,2.67,0,0,1,.73-.31,3,3,0,0,1,.73-.08h.37l.46.07a3.83,3.83,0,0,1,.43.11,1.2,1.2,0,0,1,.27.12l.1.1a.46.46,0,0,1,.05.1.82.82,0,0,1,0,.18C433.68,326.53,433.69,326.63,433.69,326.75Z" transform="translate(-19.6 -217.31)"/>
    <path class="a" d="M442.08,321.63a1.87,1.87,0,0,1,0,.27.5.5,0,0,1-.05.16.15.15,0,0,1-.08.08.17.17,0,0,1-.1,0,.84.84,0,0,1-.24-.06,2.45,2.45,0,0,0-.34-.13,2.66,2.66,0,0,0-.49-.13,3.13,3.13,0,0,0-.65-.06,2.15,2.15,0,0,0-.89.16,1.24,1.24,0,0,0-.58.51,2.32,2.32,0,0,0-.32.9,8.33,8.33,0,0,0-.09,1.33V326H441a.33.33,0,0,1,.15,0,.38.38,0,0,1,.11.11.64.64,0,0,1,.08.19,1.14,1.14,0,0,1,0,.27.73.73,0,0,1-.1.44.29.29,0,0,1-.26.15h-2.76v9.78a.33.33,0,0,1,0,.13.27.27,0,0,1-.12.09.94.94,0,0,1-.23.06,3.25,3.25,0,0,1-.72,0,1.09,1.09,0,0,1-.23-.06.19.19,0,0,1-.12-.09.31.31,0,0,1,0-.13v-9.78h-1.69a.29.29,0,0,1-.27-.15.82.82,0,0,1-.1-.44,1.12,1.12,0,0,1,0-.27,1.07,1.07,0,0,1,.07-.19.29.29,0,0,1,.11-.11.41.41,0,0,1,.16,0h1.69v-1.22a7.61,7.61,0,0,1,.21-1.92,3.14,3.14,0,0,1,.65-1.29,2.36,2.36,0,0,1,1.07-.73,4.66,4.66,0,0,1,1.51-.22,4.39,4.39,0,0,1,.82.07,3.75,3.75,0,0,1,.61.17,1,1,0,0,1,.27.15.61.61,0,0,1,.12.16.79.79,0,0,1,.06.22A2.46,2.46,0,0,1,442.08,321.63Z" transform="translate(-19.6 -217.31)"/>
    <path class="a" d="M453.22,331.45a7.4,7.4,0,0,1-.35,2.36,5.26,5.26,0,0,1-1,1.87,4.73,4.73,0,0,1-1.72,1.24,6,6,0,0,1-2.41.44,6.28,6.28,0,0,1-2.31-.39,4.47,4.47,0,0,1-1.66-1.14,4.68,4.68,0,0,1-1-1.79,8.55,8.55,0,0,1,0-4.74,5.26,5.26,0,0,1,1-1.87,4.86,4.86,0,0,1,1.73-1.23,6.17,6.17,0,0,1,2.41-.43,6.3,6.3,0,0,1,2.32.39,4.2,4.2,0,0,1,1.65,1.13,5,5,0,0,1,1,1.79A8,8,0,0,1,453.22,331.45Zm-1.57.13a8.28,8.28,0,0,0-.18-1.74,4.28,4.28,0,0,0-.63-1.46,3.12,3.12,0,0,0-1.17-1,4,4,0,0,0-1.83-.37,4.08,4.08,0,0,0-1.75.34,3.16,3.16,0,0,0-1.2,1,4,4,0,0,0-.69,1.44,6.72,6.72,0,0,0-.23,1.78,7.66,7.66,0,0,0,.19,1.76,4.06,4.06,0,0,0,.62,1.47,3.07,3.07,0,0,0,1.17,1,4,4,0,0,0,1.84.37,4.22,4.22,0,0,0,1.74-.34,3.35,3.35,0,0,0,1.21-.95,4.1,4.1,0,0,0,.69-1.44A6.83,6.83,0,0,0,451.65,331.58Z" transform="translate(-19.6 -217.31)"/>
    <path class="a" d="M462,336.29a1.45,1.45,0,0,1-.05.4.47.47,0,0,1-.13.24,1,1,0,0,1-.28.17,3,3,0,0,1-.42.13l-.49.08-.51,0a4.27,4.27,0,0,1-1.43-.21,2.25,2.25,0,0,1-1-.65,2.6,2.6,0,0,1-.54-1.09,6.62,6.62,0,0,1-.17-1.57v-6.67h-1.68a.29.29,0,0,1-.27-.15.73.73,0,0,1-.1-.44,1.14,1.14,0,0,1,0-.27.64.64,0,0,1,.08-.19.38.38,0,0,1,.11-.11.41.41,0,0,1,.16,0H457v-2.63a.25.25,0,0,1,0-.13.2.2,0,0,1,.12-.1.7.7,0,0,1,.23-.06,1.94,1.94,0,0,1,.36,0,2,2,0,0,1,.37,0,.58.58,0,0,1,.22.06.29.29,0,0,1,.12.1.25.25,0,0,1,0,.13V326h3.11a.41.41,0,0,1,.16,0,.6.6,0,0,1,.12.11.62.62,0,0,1,.07.19,1.12,1.12,0,0,1,0,.27.73.73,0,0,1-.11.44.32.32,0,0,1-.27.15H458.5v6.48a3.83,3.83,0,0,0,.36,1.86,1.42,1.42,0,0,0,1.34.64,2.32,2.32,0,0,0,.55-.06,3.68,3.68,0,0,0,.43-.13l.32-.13a.53.53,0,0,1,.23-.06.23.23,0,0,1,.11,0,.15.15,0,0,1,.08.09.5.5,0,0,1,.05.16A1.72,1.72,0,0,1,462,336.29Z" transform="translate(-19.6 -217.31)"/>
    <path class="a" d="M474.68,331.45a7.69,7.69,0,0,1-.35,2.36,5.26,5.26,0,0,1-1,1.87,4.76,4.76,0,0,1-1.73,1.24,6,6,0,0,1-2.4.44,6.33,6.33,0,0,1-2.32-.39,4.44,4.44,0,0,1-1.65-1.14,4.68,4.68,0,0,1-1-1.79,8,8,0,0,1-.33-2.39,7.67,7.67,0,0,1,.34-2.35,5.11,5.11,0,0,1,1-1.87A4.82,4.82,0,0,1,467,326.2a7,7,0,0,1,4.73,0,4.3,4.3,0,0,1,1.66,1.13,4.79,4.79,0,0,1,1,1.79A7.67,7.67,0,0,1,474.68,331.45Zm-1.57.13a7.67,7.67,0,0,0-.19-1.74,4.08,4.08,0,0,0-.62-1.46,3.12,3.12,0,0,0-1.17-1,4.69,4.69,0,0,0-3.58,0,3.16,3.16,0,0,0-1.2,1,3.87,3.87,0,0,0-.7,1.44,6.73,6.73,0,0,0-.22,1.78,7.66,7.66,0,0,0,.19,1.76,4.06,4.06,0,0,0,.62,1.47,3.07,3.07,0,0,0,1.17,1,4,4,0,0,0,1.83.37,4.23,4.23,0,0,0,1.75-.34,3.23,3.23,0,0,0,1.2-.95,4.1,4.1,0,0,0,.69-1.44A6.82,6.82,0,0,0,473.11,331.58Z" transform="translate(-19.6 -217.31)"/>
    <path class="a" d="M487.05,326.56a.67.67,0,0,1-.12.46.34.34,0,0,1-.28.13h-1.78a2.83,2.83,0,0,1,.72,1.11,3.79,3.79,0,0,1,.21,1.26,4.19,4.19,0,0,1-.3,1.63,3.5,3.5,0,0,1-.87,1.2,3.82,3.82,0,0,1-1.34.75,5.37,5.37,0,0,1-1.7.26,5.29,5.29,0,0,1-1.45-.2,3.14,3.14,0,0,1-1.07-.5,1.84,1.84,0,0,0-.41.55,1.46,1.46,0,0,0-.17.71.92.92,0,0,0,.46.76,2.28,2.28,0,0,0,1.18.33l3.05.12a6,6,0,0,1,1.45.2,3.8,3.8,0,0,1,1.19.52,2.68,2.68,0,0,1,.82.86,2.32,2.32,0,0,1,.29,1.2,3.21,3.21,0,0,1-.3,1.36,3,3,0,0,1-.95,1.15,5.21,5.21,0,0,1-1.64.78,8.7,8.7,0,0,1-2.38.29,10.31,10.31,0,0,1-2.25-.22,4.77,4.77,0,0,1-1.52-.61,2.31,2.31,0,0,1-1.13-2,3.33,3.33,0,0,1,.1-.78,2.72,2.72,0,0,1,.31-.7,3.25,3.25,0,0,1,.51-.64c.2-.2.44-.41.7-.63a2.3,2.3,0,0,1-.93-.74,1.66,1.66,0,0,1-.3-.94,2.74,2.74,0,0,1,.3-1.3,4.87,4.87,0,0,1,.72-1,3.55,3.55,0,0,1-.56-1,3.74,3.74,0,0,1-.2-1.28,4,4,0,0,1,.31-1.62,3.44,3.44,0,0,1,.87-1.21,3.88,3.88,0,0,1,1.33-.77,5.35,5.35,0,0,1,1.69-.26,6.72,6.72,0,0,1,.92.05c.28,0,.55.08.79.14h3.33a.32.32,0,0,1,.3.15A.79.79,0,0,1,487.05,326.56ZM485.45,338a1.3,1.3,0,0,0-.67-1.19,3.5,3.5,0,0,0-1.79-.45l-3.27-.11a5.59,5.59,0,0,0-.74.63,3.11,3.11,0,0,0-.45.57,2,2,0,0,0-.24.55,2.35,2.35,0,0,0-.06.54,1.42,1.42,0,0,0,.93,1.32,6.05,6.05,0,0,0,2.59.45,6.68,6.68,0,0,0,1.75-.19,3.55,3.55,0,0,0,1.14-.52,1.84,1.84,0,0,0,.62-.73A2,2,0,0,0,485.45,338Zm-1.18-8.44a2.54,2.54,0,0,0-.71-1.91,2.73,2.73,0,0,0-2-.69,3,3,0,0,0-1.16.21,2.38,2.38,0,0,0-.82.58,2.44,2.44,0,0,0-.49.86,3.13,3.13,0,0,0-.16,1,2.49,2.49,0,0,0,.7,1.86,2.73,2.73,0,0,0,2,.69,3.07,3.07,0,0,0,1.18-.22,2.27,2.27,0,0,0,.83-.57,2.33,2.33,0,0,0,.48-.84A3.09,3.09,0,0,0,484.27,329.55Z" transform="translate(-19.6 -217.31)"/>
    <path class="a" d="M496.23,326.75a2.63,2.63,0,0,1,0,.3.88.88,0,0,1,0,.2.36.36,0,0,1-.08.12.14.14,0,0,1-.11,0,.71.71,0,0,1-.27-.05l-.35-.11-.43-.12a2.81,2.81,0,0,0-.53-.05,1.74,1.74,0,0,0-.66.14,2.59,2.59,0,0,0-.68.44,5.39,5.39,0,0,0-.74.8,14.26,14.26,0,0,0-.87,1.22v7.25a.22.22,0,0,1,0,.13.19.19,0,0,1-.12.09.85.85,0,0,1-.22.06,2,2,0,0,1-.37,0,1.78,1.78,0,0,1-.35,0,.83.83,0,0,1-.23-.06.19.19,0,0,1-.12-.09.31.31,0,0,1,0-.13V326.2a.31.31,0,0,1,0-.13.32.32,0,0,1,.12-.1l.21-.06h.7l.21.06a.31.31,0,0,1,.1.1.33.33,0,0,1,0,.13v1.7a9.54,9.54,0,0,1,.89-1.09,4.73,4.73,0,0,1,.79-.65,2.67,2.67,0,0,1,.73-.31,2.92,2.92,0,0,1,.73-.08h.37l.46.07a3.83,3.83,0,0,1,.43.11,1.2,1.2,0,0,1,.27.12l.1.1a.23.23,0,0,1,0,.1.74.74,0,0,1,0,.18Z" transform="translate(-19.6 -217.31)"/>
    <path class="a" d="M506.18,336.93a.19.19,0,0,1-.08.18.51.51,0,0,1-.21.09,1.62,1.62,0,0,1-.35,0,1.9,1.9,0,0,1-.37,0,.61.61,0,0,1-.23-.09.22.22,0,0,1-.08-.18v-1.2a5.7,5.7,0,0,1-1.67,1.21,4.57,4.57,0,0,1-1.91.42,5.57,5.57,0,0,1-1.59-.21,3.55,3.55,0,0,1-1.19-.63,2.69,2.69,0,0,1-.74-1,3.05,3.05,0,0,1-.27-1.3,3,3,0,0,1,.39-1.55,3.21,3.21,0,0,1,1.1-1.1,5.3,5.3,0,0,1,1.71-.65,10.06,10.06,0,0,1,2.22-.22h1.79v-.93a4.4,4.4,0,0,0-.15-1.21,2.09,2.09,0,0,0-.48-.88,2.12,2.12,0,0,0-.88-.54,4.14,4.14,0,0,0-1.31-.18,4.62,4.62,0,0,0-1.34.18,6.67,6.67,0,0,0-1.05.38,6.89,6.89,0,0,0-.74.39,1.14,1.14,0,0,1-.42.17.32.32,0,0,1-.14,0,.19.19,0,0,1-.1-.08.67.67,0,0,1-.07-.17,1.77,1.77,0,0,1,0-.24,2.1,2.1,0,0,1,0-.4.66.66,0,0,1,.2-.3,2.79,2.79,0,0,1,.55-.35,8.36,8.36,0,0,1,.92-.37,8.17,8.17,0,0,1,1.11-.28,6.94,6.94,0,0,1,1.2-.1,6.51,6.51,0,0,1,2,.26,3.29,3.29,0,0,1,1.29.77A2.8,2.8,0,0,1,506,328a6,6,0,0,1,.21,1.66Zm-1.48-5.06h-2.06a7.34,7.34,0,0,0-1.57.15,3.28,3.28,0,0,0-1.12.45,2,2,0,0,0-.67.71,2.08,2.08,0,0,0-.22.95,1.89,1.89,0,0,0,.62,1.48,2.56,2.56,0,0,0,1.74.55,3.29,3.29,0,0,0,1.65-.44,7,7,0,0,0,1.63-1.33Z" transform="translate(-19.6 -217.31)"/>
    <path class="a" d="M516,321.63a1.87,1.87,0,0,1,0,.27.5.5,0,0,1,0,.16s0,.07-.07.08a.2.2,0,0,1-.11,0,.78.78,0,0,1-.23-.06,3.32,3.32,0,0,0-.35-.13,2.54,2.54,0,0,0-.48-.13,3.23,3.23,0,0,0-.66-.06,2.1,2.1,0,0,0-.88.16,1.26,1.26,0,0,0-.59.51,2.32,2.32,0,0,0-.32.9,8.33,8.33,0,0,0-.09,1.33V326h2.77l.15,0,.11.11a.62.62,0,0,1,.07.19,1.12,1.12,0,0,1,0,.27.73.73,0,0,1-.1.44.31.31,0,0,1-.26.15h-2.77v9.78a.22.22,0,0,1,0,.13.19.19,0,0,1-.12.09.83.83,0,0,1-.23.06,1.94,1.94,0,0,1-.36,0,1.78,1.78,0,0,1-.35,0,1,1,0,0,1-.24-.06.2.2,0,0,1-.11-.09.31.31,0,0,1,0-.13v-9.78H509a.29.29,0,0,1-.27-.15.83.83,0,0,1-.09-.44,2.13,2.13,0,0,1,0-.27,1.07,1.07,0,0,1,.07-.19.38.38,0,0,1,.11-.11.41.41,0,0,1,.16,0h1.7v-1.22a7.18,7.18,0,0,1,.21-1.92,3.13,3.13,0,0,1,.64-1.29,2.39,2.39,0,0,1,1.08-.73,4.58,4.58,0,0,1,1.51-.22,4.47,4.47,0,0,1,.82.07,3.32,3.32,0,0,1,.6.17,1.3,1.3,0,0,1,.28.15.91.91,0,0,1,.11.16.79.79,0,0,1,.06.22A2.46,2.46,0,0,1,516,321.63Z" transform="translate(-19.6 -217.31)"/>
    <path class="a" d="M526.26,331a.66.66,0,0,1-.24.59.8.8,0,0,1-.46.16h-7.69a7.63,7.63,0,0,0,.2,1.8,3.57,3.57,0,0,0,.68,1.38,3,3,0,0,0,1.24.88,4.88,4.88,0,0,0,1.87.31,6.77,6.77,0,0,0,1.41-.13,7.08,7.08,0,0,0,1.07-.29,6.28,6.28,0,0,0,.75-.29,1.49,1.49,0,0,1,.42-.13.25.25,0,0,1,.14,0,.27.27,0,0,1,.1.11.87.87,0,0,1,0,.19,2.36,2.36,0,0,1,0,.3.81.81,0,0,1,0,.16l0,.14a.52.52,0,0,1-.06.13.53.53,0,0,1-.1.12,2.13,2.13,0,0,1-.38.2,6.2,6.2,0,0,1-.85.3,12,12,0,0,1-1.22.27,8.77,8.77,0,0,1-1.49.11,6.68,6.68,0,0,1-2.32-.37,4.28,4.28,0,0,1-1.69-1.1,4.68,4.68,0,0,1-1-1.81,7.89,7.89,0,0,1-.36-2.5,7.4,7.4,0,0,1,.37-2.44,5.14,5.14,0,0,1,1.05-1.83,4.63,4.63,0,0,1,1.66-1.15,5.68,5.68,0,0,1,2.15-.39,5.21,5.21,0,0,1,2.16.4,4.12,4.12,0,0,1,1.48,1.08,4.32,4.32,0,0,1,.85,1.58,6.66,6.66,0,0,1,.27,1.9Zm-1.54-.41a3.72,3.72,0,0,0-.82-2.67,3.18,3.18,0,0,0-2.5-1,3.44,3.44,0,0,0-1.49.31,3.25,3.25,0,0,0-1.09.8,3.57,3.57,0,0,0-.68,1.15,4.57,4.57,0,0,0-.27,1.37Z" transform="translate(-19.6 -217.31)"/>
    <path class="a" d="M538.82,336.93a.31.31,0,0,1,0,.13.27.27,0,0,1-.12.09.94.94,0,0,1-.23.06,1.78,1.78,0,0,1-.35,0,2,2,0,0,1-.37,0,.85.85,0,0,1-.22-.06.19.19,0,0,1-.12-.09.22.22,0,0,1,0-.13v-6.37a6.45,6.45,0,0,0-.16-1.61,3.1,3.1,0,0,0-.49-1.07,2.25,2.25,0,0,0-.83-.69,2.69,2.69,0,0,0-1.17-.24,3,3,0,0,0-1.72.58,9.07,9.07,0,0,0-1.81,1.71v7.69a.33.33,0,0,1,0,.13.23.23,0,0,1-.12.09.85.85,0,0,1-.22.06,2,2,0,0,1-.37,0,1.94,1.94,0,0,1-.36,0,1.09,1.09,0,0,1-.23-.06.27.27,0,0,1-.12-.09.31.31,0,0,1,0-.13V326.2a.31.31,0,0,1,0-.13.63.63,0,0,1,.12-.1l.22-.06h.69l.22.06a.31.31,0,0,1,.1.1.31.31,0,0,1,0,.13v1.52a7,7,0,0,1,1.91-1.49,4.12,4.12,0,0,1,1.86-.46,4.37,4.37,0,0,1,1.87.35,3.47,3.47,0,0,1,1.23,1,3.84,3.84,0,0,1,.67,1.41,7.87,7.87,0,0,1,.2,1.94Z" transform="translate(-19.6 -217.31)"/>
    <path class="a" d="M551.14,326.18a.25.25,0,0,1,0,.08.22.22,0,0,1,0,.08.25.25,0,0,1,0,.07.19.19,0,0,1,0,.08L547,336.93a.42.42,0,0,1-.11.15.48.48,0,0,1-.19.09.93.93,0,0,1-.27.05h-.74a1.37,1.37,0,0,1-.27-.06.48.48,0,0,1-.19-.09.36.36,0,0,1-.11-.14L541,326.49a1.14,1.14,0,0,1-.06-.15.58.58,0,0,1,0-.1.13.13,0,0,1,0-.06.23.23,0,0,1,0-.14.19.19,0,0,1,.12-.09.87.87,0,0,1,.21,0h.78a1,1,0,0,1,.25.06.24.24,0,0,1,.14.09.64.64,0,0,1,.08.14l3.53,9.36,0,.06,0-.06,3.47-9.36a.37.37,0,0,1,.07-.14.28.28,0,0,1,.14-.09,1.31,1.31,0,0,1,.25-.06h.74a.48.48,0,0,1,.2,0,.24.24,0,0,1,.11.08A.32.32,0,0,1,551.14,326.18Z" transform="translate(-19.6 -217.31)"/>
    <path class="a" d="M562.69,331a.66.66,0,0,1-.24.59.8.8,0,0,1-.46.16H554.3a7.14,7.14,0,0,0,.2,1.8,3.57,3.57,0,0,0,.68,1.38,3,3,0,0,0,1.24.88,4.88,4.88,0,0,0,1.87.31,6.6,6.6,0,0,0,1.4-.13,6.91,6.91,0,0,0,1.08-.29,6.28,6.28,0,0,0,.75-.29,1.41,1.41,0,0,1,.42-.13.2.2,0,0,1,.13,0,.23.23,0,0,1,.11.11.87.87,0,0,1,.05.19,2.36,2.36,0,0,1,0,.3.81.81,0,0,1,0,.16l0,.14a.52.52,0,0,1-.06.13l-.1.12a2,2,0,0,1-.39.2,5.57,5.57,0,0,1-.84.3,12,12,0,0,1-1.22.27,8.77,8.77,0,0,1-1.49.11,6.68,6.68,0,0,1-2.32-.37,4.28,4.28,0,0,1-1.69-1.1,4.83,4.83,0,0,1-1.05-1.81,8.2,8.2,0,0,1-.35-2.5,7.4,7.4,0,0,1,.37-2.44,5,5,0,0,1,1-1.83,4.68,4.68,0,0,1,1.65-1.15,5.71,5.71,0,0,1,2.15-.39,5.26,5.26,0,0,1,2.17.4,4.2,4.2,0,0,1,1.48,1.08,4.32,4.32,0,0,1,.85,1.58,6.66,6.66,0,0,1,.27,1.9Zm-1.54-.41a3.72,3.72,0,0,0-.82-2.67,3.19,3.19,0,0,0-2.51-1,3.51,3.51,0,0,0-1.49.31,3.31,3.31,0,0,0-1.08.8,3.4,3.4,0,0,0-.68,1.15,4.57,4.57,0,0,0-.27,1.37Z" transform="translate(-19.6 -217.31)"/>
    <path class="a" d="M572.36,326.75a2.63,2.63,0,0,1,0,.3.83.83,0,0,1-.05.2.35.35,0,0,1-.07.12.16.16,0,0,1-.12,0,.69.69,0,0,1-.26-.05l-.35-.11-.44-.12a2.7,2.7,0,0,0-.52-.05,1.74,1.74,0,0,0-.66.14,2.44,2.44,0,0,0-.68.44,4.92,4.92,0,0,0-.75.8,14.39,14.39,0,0,0-.86,1.22v7.25a.33.33,0,0,1,0,.13.27.27,0,0,1-.12.09.85.85,0,0,1-.22.06,2,2,0,0,1-.37,0,1.94,1.94,0,0,1-.36,0,1.09,1.09,0,0,1-.23-.06.19.19,0,0,1-.12-.09.31.31,0,0,1,0-.13V326.2a.31.31,0,0,1,0-.13.32.32,0,0,1,.12-.1l.22-.06h.69l.21.06a.36.36,0,0,1,.11.1.31.31,0,0,1,0,.13v1.7a8.56,8.56,0,0,1,.9-1.09,4.32,4.32,0,0,1,.78-.65,2.8,2.8,0,0,1,.73-.31,3,3,0,0,1,.73-.08H571l.45.07.44.11a1.2,1.2,0,0,1,.27.12.46.46,0,0,1,.1.1.51.51,0,0,1,0,.1.82.82,0,0,1,0,.18A2.36,2.36,0,0,1,572.36,326.75Z" transform="translate(-19.6 -217.31)"/>
    <path class="a" d="M583.73,331a.66.66,0,0,1-.24.59.78.78,0,0,1-.46.16h-7.69a7.12,7.12,0,0,0,.21,1.8,3.31,3.31,0,0,0,.68,1.38,3,3,0,0,0,1.23.88,4.91,4.91,0,0,0,1.87.31,6.77,6.77,0,0,0,1.41-.13,7.58,7.58,0,0,0,1.08-.29,8,8,0,0,0,.75-.29,1.37,1.37,0,0,1,.41-.13.23.23,0,0,1,.14,0,.22.22,0,0,1,.1.11.85.85,0,0,1,.06.19,2.63,2.63,0,0,1,0,.3.81.81,0,0,1,0,.16l0,.14a.5.5,0,0,1,0,.13.6.6,0,0,1-.11.12,2.13,2.13,0,0,1-.38.2,6.2,6.2,0,0,1-.85.3,11.4,11.4,0,0,1-1.22.27,8.65,8.65,0,0,1-1.48.11,6.61,6.61,0,0,1-2.32-.37,4.32,4.32,0,0,1-1.7-1.1,4.81,4.81,0,0,1-1-1.81,7.89,7.89,0,0,1-.36-2.5,7.67,7.67,0,0,1,.37-2.44,5.16,5.16,0,0,1,1.06-1.83,4.51,4.51,0,0,1,1.65-1.15,5.68,5.68,0,0,1,2.15-.39,5.26,5.26,0,0,1,2.17.4,4.08,4.08,0,0,1,1.47,1.08,4.32,4.32,0,0,1,.85,1.58,6.66,6.66,0,0,1,.27,1.9Zm-1.53-.41a3.73,3.73,0,0,0-.83-2.67,3.17,3.17,0,0,0-2.5-1,3.48,3.48,0,0,0-1.49.31,3.25,3.25,0,0,0-1.09.8,3.57,3.57,0,0,0-.68,1.15,5.28,5.28,0,0,0-.27,1.37Z" transform="translate(-19.6 -217.31)"/>
    <path class="a" d="M596.3,336.93a.33.33,0,0,1,0,.13.19.19,0,0,1-.12.09.85.85,0,0,1-.22.06,1.94,1.94,0,0,1-.36,0,2,2,0,0,1-.37,0,.85.85,0,0,1-.22-.06.27.27,0,0,1-.12-.09.33.33,0,0,1,0-.13v-6.37a6.45,6.45,0,0,0-.16-1.61,3.29,3.29,0,0,0-.48-1.07,2.42,2.42,0,0,0-.83-.69,2.73,2.73,0,0,0-1.18-.24,3,3,0,0,0-1.72.58,9.34,9.34,0,0,0-1.81,1.71v7.69a.22.22,0,0,1,0,.13.19.19,0,0,1-.12.09.75.75,0,0,1-.22.06,2,2,0,0,1-.37,0,1.78,1.78,0,0,1-.35,0,.83.83,0,0,1-.23-.06.19.19,0,0,1-.12-.09.31.31,0,0,1,0-.13V326.2a.31.31,0,0,1,0-.13.32.32,0,0,1,.12-.1l.21-.06h.7l.21.06a.31.31,0,0,1,.1.1.22.22,0,0,1,0,.13v1.52a6.79,6.79,0,0,1,1.9-1.49,4.18,4.18,0,0,1,1.86-.46,4.37,4.37,0,0,1,1.87.35,3.3,3.3,0,0,1,1.23,1,3.69,3.69,0,0,1,.67,1.41,7.83,7.83,0,0,1,.21,1.94Z" transform="translate(-19.6 -217.31)"/>
    <path class="a" d="M602.12,322.59a1.06,1.06,0,0,1-.21.77,1.6,1.6,0,0,1-1.53,0,1.06,1.06,0,0,1-.2-.77,1.08,1.08,0,0,1,.21-.77,1.15,1.15,0,0,1,.77-.2,1.07,1.07,0,0,1,.75.2A1,1,0,0,1,602.12,322.59Zm-.22,14.34a.33.33,0,0,1,0,.13.27.27,0,0,1-.12.09.85.85,0,0,1-.22.06,2,2,0,0,1-.37,0,1.94,1.94,0,0,1-.36,0,1.09,1.09,0,0,1-.23-.06.19.19,0,0,1-.12-.09.31.31,0,0,1,0-.13V326.2a.31.31,0,0,1,0-.13.32.32,0,0,1,.12-.1l.23-.06h.73l.22.06a.63.63,0,0,1,.12.1.33.33,0,0,1,0,.13Z" transform="translate(-19.6 -217.31)"/>
    <path class="a" d="M615.09,326.56a.67.67,0,0,1-.12.46.34.34,0,0,1-.28.13H612.9a2.75,2.75,0,0,1,.73,1.11,3.79,3.79,0,0,1,.21,1.26,4,4,0,0,1-.31,1.63,3.35,3.35,0,0,1-.86,1.2,3.82,3.82,0,0,1-1.34.75,5.37,5.37,0,0,1-1.7.26,5.29,5.29,0,0,1-1.45-.2,3,3,0,0,1-1.07-.5,1.84,1.84,0,0,0-.41.55,1.46,1.46,0,0,0-.17.71.9.9,0,0,0,.46.76,2.26,2.26,0,0,0,1.18.33l3.05.12a6,6,0,0,1,1.45.2,3.8,3.8,0,0,1,1.19.52,2.65,2.65,0,0,1,.81.86,2.32,2.32,0,0,1,.3,1.2,3.21,3.21,0,0,1-.3,1.36,3.14,3.14,0,0,1-.95,1.15,5.21,5.21,0,0,1-1.64.78,8.7,8.7,0,0,1-2.38.29,10.31,10.31,0,0,1-2.25-.22,4.77,4.77,0,0,1-1.52-.61,2.37,2.37,0,0,1-.86-.9,2.44,2.44,0,0,1-.27-1.13,2.88,2.88,0,0,1,.1-.78,2.72,2.72,0,0,1,.31-.7,3.25,3.25,0,0,1,.51-.64c.2-.2.44-.41.7-.63a2.3,2.3,0,0,1-.93-.74,1.66,1.66,0,0,1-.3-.94,2.74,2.74,0,0,1,.3-1.3,4.87,4.87,0,0,1,.72-1,3.55,3.55,0,0,1-.56-1,3.51,3.51,0,0,1-.2-1.28,4,4,0,0,1,.31-1.62,3.44,3.44,0,0,1,.87-1.21A3.93,3.93,0,0,1,608,326a5.46,5.46,0,0,1,1.7-.26,6.81,6.81,0,0,1,.92.05c.28,0,.55.08.79.14h3.33a.32.32,0,0,1,.3.15A.88.88,0,0,1,615.09,326.56ZM613.49,338a1.3,1.3,0,0,0-.67-1.19,3.5,3.5,0,0,0-1.79-.45l-3.28-.11a6.15,6.15,0,0,0-.73.63,3.71,3.71,0,0,0-.46.57,2.31,2.31,0,0,0-.23.55,2.35,2.35,0,0,0-.06.54,1.42,1.42,0,0,0,.93,1.32,6.05,6.05,0,0,0,2.59.45,6.68,6.68,0,0,0,1.75-.19,3.55,3.55,0,0,0,1.14-.52,1.84,1.84,0,0,0,.62-.73A2,2,0,0,0,613.49,338Zm-1.18-8.44a2.54,2.54,0,0,0-.71-1.91,2.75,2.75,0,0,0-2-.69,3,3,0,0,0-1.16.21,2.38,2.38,0,0,0-.82.58,2.44,2.44,0,0,0-.49.86,3.13,3.13,0,0,0-.16,1,2.45,2.45,0,0,0,.7,1.86,2.71,2.71,0,0,0,2,.69,3.07,3.07,0,0,0,1.18-.22,2.36,2.36,0,0,0,.83-.57,2.33,2.33,0,0,0,.48-.84A3.09,3.09,0,0,0,612.31,329.55Z" transform="translate(-19.6 -217.31)"/>
    <path class="a" d="M619.72,322.59a1.06,1.06,0,0,1-.21.77,1.1,1.1,0,0,1-.77.2.77.77,0,0,1-1-1,1.08,1.08,0,0,1,.21-.77,1.15,1.15,0,0,1,.77-.2,1.12,1.12,0,0,1,.76.2A1.08,1.08,0,0,1,619.72,322.59Zm-.22,14.34a.22.22,0,0,1,0,.13.19.19,0,0,1-.12.09.85.85,0,0,1-.22.06,2,2,0,0,1-.37,0,1.78,1.78,0,0,1-.35,0,.83.83,0,0,1-.23-.06.19.19,0,0,1-.12-.09.31.31,0,0,1,0-.13V326.2a.31.31,0,0,1,0-.13.32.32,0,0,1,.12-.1l.23-.06h.72l.22.06a.32.32,0,0,1,.12.1.22.22,0,0,1,0,.13Z" transform="translate(-19.6 -217.31)"/>
    <path class="a" d="M632.8,336.93a.22.22,0,0,1,0,.13.2.2,0,0,1-.11.09.94.94,0,0,1-.23.06,1.78,1.78,0,0,1-.35,0,2,2,0,0,1-.37,0,.94.94,0,0,1-.23-.06.2.2,0,0,1-.11-.09.22.22,0,0,1,0-.13v-6.37a7,7,0,0,0-.16-1.61,3.1,3.1,0,0,0-.49-1.07,2.33,2.33,0,0,0-.83-.69,2.73,2.73,0,0,0-1.18-.24,3.06,3.06,0,0,0-1.72.58,9.32,9.32,0,0,0-1.8,1.71v7.69a.33.33,0,0,1,0,.13.27.27,0,0,1-.12.09.83.83,0,0,1-.23.06,1.84,1.84,0,0,1-.36,0,1.94,1.94,0,0,1-.36,0,1.09,1.09,0,0,1-.23-.06.19.19,0,0,1-.12-.09.31.31,0,0,1,0-.13V326.2a.31.31,0,0,1,0-.13.32.32,0,0,1,.12-.1l.22-.06h.69l.21.06a.36.36,0,0,1,.11.1.31.31,0,0,1,0,.13v1.52a6.82,6.82,0,0,1,1.91-1.49,4.12,4.12,0,0,1,1.86-.46,4.32,4.32,0,0,1,1.86.35,3.3,3.3,0,0,1,1.23,1,3.86,3.86,0,0,1,.68,1.41,8.39,8.39,0,0,1,.2,1.94Z" transform="translate(-19.6 -217.31)"/>
    <path class="a" d="M646,326.56a.67.67,0,0,1-.11.46.34.34,0,0,1-.28.13h-1.79a2.86,2.86,0,0,1,.73,1.11,3.79,3.79,0,0,1,.21,1.26,4,4,0,0,1-.31,1.63,3.35,3.35,0,0,1-.86,1.2,3.82,3.82,0,0,1-1.34.75,5.38,5.38,0,0,1-1.71.26,5.27,5.27,0,0,1-1.44-.2,3,3,0,0,1-1.07-.5,2.06,2.06,0,0,0-.42.55,1.58,1.58,0,0,0-.16.71.9.9,0,0,0,.46.76A2.26,2.26,0,0,0,639,335l3.05.12a6,6,0,0,1,1.45.2,3.8,3.8,0,0,1,1.19.52,2.76,2.76,0,0,1,.81.86,2.32,2.32,0,0,1,.3,1.2,3.21,3.21,0,0,1-.3,1.36,3.14,3.14,0,0,1-.95,1.15,5.32,5.32,0,0,1-1.64.78,8.7,8.7,0,0,1-2.38.29,10.31,10.31,0,0,1-2.25-.22,4.77,4.77,0,0,1-1.52-.61,2.37,2.37,0,0,1-.86-.9,2.44,2.44,0,0,1-.27-1.13,2.88,2.88,0,0,1,.1-.78,3.08,3.08,0,0,1,.3-.7,3.75,3.75,0,0,1,.52-.64,9.23,9.23,0,0,1,.7-.63,2.23,2.23,0,0,1-.93-.74,1.66,1.66,0,0,1-.3-.94,2.74,2.74,0,0,1,.3-1.3,4.52,4.52,0,0,1,.72-1,3.55,3.55,0,0,1-.56-1,3.51,3.51,0,0,1-.2-1.28,4,4,0,0,1,.31-1.62,3.44,3.44,0,0,1,.87-1.21,3.93,3.93,0,0,1,1.32-.77,5.41,5.41,0,0,1,1.7-.26,6.57,6.57,0,0,1,.91.05,7.76,7.76,0,0,1,.8.14h3.33a.32.32,0,0,1,.3.15A.89.89,0,0,1,646,326.56ZM644.36,338a1.3,1.3,0,0,0-.67-1.19,3.5,3.5,0,0,0-1.79-.45l-3.28-.11a6.15,6.15,0,0,0-.73.63,3.71,3.71,0,0,0-.46.57,2,2,0,0,0-.23.55,2.35,2.35,0,0,0-.06.54,1.42,1.42,0,0,0,.93,1.32,6.05,6.05,0,0,0,2.59.45,6.73,6.73,0,0,0,1.75-.19,3.55,3.55,0,0,0,1.14-.52,1.84,1.84,0,0,0,.62-.73A2,2,0,0,0,644.36,338Zm-1.19-8.44a2.54,2.54,0,0,0-.7-1.91,2.75,2.75,0,0,0-2-.69,3,3,0,0,0-1.16.21,2.38,2.38,0,0,0-.82.58,2.44,2.44,0,0,0-.49.86,3.13,3.13,0,0,0-.16,1,2.45,2.45,0,0,0,.7,1.86,2.71,2.71,0,0,0,2,.69,3.07,3.07,0,0,0,1.18-.22,2.36,2.36,0,0,0,.83-.57,2.49,2.49,0,0,0,.48-.84A3.08,3.08,0,0,0,643.17,329.55Z" transform="translate(-19.6 -217.31)"/>
    <path class="a" d="M664.64,331.45a7.4,7.4,0,0,1-.35,2.36,5.11,5.11,0,0,1-1,1.87,4.73,4.73,0,0,1-1.72,1.24,6,6,0,0,1-2.41.44,6.28,6.28,0,0,1-2.31-.39,4.47,4.47,0,0,1-1.66-1.14,4.81,4.81,0,0,1-1-1.79,8,8,0,0,1-.33-2.39,7.67,7.67,0,0,1,.35-2.35,5.09,5.09,0,0,1,1-1.87,4.86,4.86,0,0,1,1.73-1.23,6.17,6.17,0,0,1,2.41-.43,6.3,6.3,0,0,1,2.32.39,4.2,4.2,0,0,1,1.65,1.13,5,5,0,0,1,1,1.79A8,8,0,0,1,664.64,331.45Zm-1.57.13a8.28,8.28,0,0,0-.18-1.74,4.28,4.28,0,0,0-.63-1.46,3.12,3.12,0,0,0-1.17-1,4,4,0,0,0-1.83-.37,4.08,4.08,0,0,0-1.75.34,3.16,3.16,0,0,0-1.2,1,4,4,0,0,0-.69,1.44,6.72,6.72,0,0,0-.23,1.78,8.26,8.26,0,0,0,.19,1.76,4.06,4.06,0,0,0,.62,1.47,3.1,3.1,0,0,0,1.18,1,4,4,0,0,0,1.83.37,4.22,4.22,0,0,0,1.74-.34,3.35,3.35,0,0,0,1.21-.95,4.1,4.1,0,0,0,.69-1.44A6.83,6.83,0,0,0,663.07,331.58Z" transform="translate(-19.6 -217.31)"/>
    <path class="a" d="M677.82,331.41a8.6,8.6,0,0,1-.32,2.47,5.21,5.21,0,0,1-.93,1.87,4.07,4.07,0,0,1-1.53,1.19,4.92,4.92,0,0,1-2.08.42,4,4,0,0,1-.94-.1,3.49,3.49,0,0,1-.85-.31,5,5,0,0,1-.83-.53,9.68,9.68,0,0,1-.88-.77v5.53a.28.28,0,0,1,0,.13.4.4,0,0,1-.12.1.58.58,0,0,1-.22.06l-.37,0-.36,0a.7.7,0,0,1-.23-.06.25.25,0,0,1-.12-.1.28.28,0,0,1,0-.13v-15a.32.32,0,0,1,0-.14.19.19,0,0,1,.12-.09.76.76,0,0,1,.21-.06H669a1.05,1.05,0,0,1,.21.06.19.19,0,0,1,.12.09.23.23,0,0,1,0,.14v1.56a12.62,12.62,0,0,1,1-.89,6.7,6.7,0,0,1,.95-.62,4.4,4.4,0,0,1,1-.37,5.07,5.07,0,0,1,1.06-.11,4.44,4.44,0,0,1,2.08.44,3.84,3.84,0,0,1,1.4,1.22,5.11,5.11,0,0,1,.79,1.79A9.54,9.54,0,0,1,677.82,331.41Zm-1.56.22a9.69,9.69,0,0,0-.15-1.73,4.76,4.76,0,0,0-.5-1.49,2.81,2.81,0,0,0-1-1,2.64,2.64,0,0,0-1.49-.4,3.28,3.28,0,0,0-.88.12,3.71,3.71,0,0,0-.88.39,6.77,6.77,0,0,0-.93.71,8.86,8.86,0,0,0-1,1.07v4.67a9.39,9.39,0,0,0,1.78,1.65,3.2,3.2,0,0,0,1.79.58,2.7,2.7,0,0,0,1.48-.4,3,3,0,0,0,1-1,4.83,4.83,0,0,0,.57-1.46A7.47,7.47,0,0,0,676.26,331.63Z" transform="translate(-19.6 -217.31)"/>
    <path class="a" d="M690.28,326.56a.67.67,0,0,1-.12.46.34.34,0,0,1-.28.13h-1.79a2.75,2.75,0,0,1,.73,1.11,3.79,3.79,0,0,1,.21,1.26,4,4,0,0,1-.31,1.63,3.35,3.35,0,0,1-.86,1.2,3.82,3.82,0,0,1-1.34.75,5.37,5.37,0,0,1-1.7.26,5.29,5.29,0,0,1-1.45-.2,3,3,0,0,1-1.07-.5,1.84,1.84,0,0,0-.41.55,1.46,1.46,0,0,0-.17.71.92.92,0,0,0,.46.76,2.26,2.26,0,0,0,1.18.33l3,.12a6,6,0,0,1,1.45.2,3.8,3.8,0,0,1,1.19.52,2.65,2.65,0,0,1,.81.86,2.32,2.32,0,0,1,.3,1.2,3.21,3.21,0,0,1-.3,1.36,3.14,3.14,0,0,1-1,1.15,5.21,5.21,0,0,1-1.64.78,8.7,8.7,0,0,1-2.38.29,10.31,10.31,0,0,1-2.25-.22,4.77,4.77,0,0,1-1.52-.61,2.37,2.37,0,0,1-.86-.9,2.44,2.44,0,0,1-.27-1.13,2.88,2.88,0,0,1,.1-.78,2.72,2.72,0,0,1,.31-.7,3.25,3.25,0,0,1,.51-.64c.2-.2.44-.41.7-.63a2.3,2.3,0,0,1-.93-.74,1.66,1.66,0,0,1-.3-.94,2.74,2.74,0,0,1,.3-1.3,4.87,4.87,0,0,1,.72-1,3.55,3.55,0,0,1-.56-1,3.51,3.51,0,0,1-.2-1.28A4,4,0,0,1,681,328a3.44,3.44,0,0,1,.87-1.21,3.88,3.88,0,0,1,1.33-.77,5.35,5.35,0,0,1,1.69-.26,6.81,6.81,0,0,1,.92.05c.28,0,.55.08.79.14h3.33a.32.32,0,0,1,.3.15A.88.88,0,0,1,690.28,326.56ZM688.68,338a1.3,1.3,0,0,0-.67-1.19,3.5,3.5,0,0,0-1.79-.45l-3.28-.11a6.15,6.15,0,0,0-.73.63,3.71,3.71,0,0,0-.46.57,2.31,2.31,0,0,0-.23.55,2.35,2.35,0,0,0-.06.54,1.42,1.42,0,0,0,.93,1.32,6.05,6.05,0,0,0,2.59.45,6.68,6.68,0,0,0,1.75-.19,3.55,3.55,0,0,0,1.14-.52,1.84,1.84,0,0,0,.62-.73A2,2,0,0,0,688.68,338Zm-1.18-8.44a2.54,2.54,0,0,0-.71-1.91,2.75,2.75,0,0,0-2-.69,3,3,0,0,0-1.16.21,2.38,2.38,0,0,0-.82.58,2.44,2.44,0,0,0-.49.86,3.13,3.13,0,0,0-.16,1,2.45,2.45,0,0,0,.7,1.86,2.71,2.71,0,0,0,2,.69A3.07,3.07,0,0,0,686,332a2.36,2.36,0,0,0,.83-.57,2.49,2.49,0,0,0,.48-.84A3.09,3.09,0,0,0,687.5,329.55Z" transform="translate(-19.6 -217.31)"/>
    <path class="a" d="M702.22,331a.66.66,0,0,1-.24.59.8.8,0,0,1-.46.16h-7.69a7.63,7.63,0,0,0,.2,1.8,3.57,3.57,0,0,0,.68,1.38,3,3,0,0,0,1.24.88,4.88,4.88,0,0,0,1.87.31,6.77,6.77,0,0,0,1.41-.13,7.58,7.58,0,0,0,1.08-.29,6.77,6.77,0,0,0,.74-.29,1.49,1.49,0,0,1,.42-.13.23.23,0,0,1,.14,0,.27.27,0,0,1,.1.11.87.87,0,0,1,0,.19,1.32,1.32,0,0,1,0,.3.81.81,0,0,1,0,.16l0,.14a.31.31,0,0,1-.06.13.53.53,0,0,1-.1.12,2.13,2.13,0,0,1-.38.2,6.2,6.2,0,0,1-.85.3,11.4,11.4,0,0,1-1.22.27,8.69,8.69,0,0,1-1.49.11,6.68,6.68,0,0,1-2.32-.37,4.35,4.35,0,0,1-1.69-1.1,4.81,4.81,0,0,1-1-1.81,7.89,7.89,0,0,1-.36-2.5,7.67,7.67,0,0,1,.37-2.44,5.29,5.29,0,0,1,1-1.83,4.63,4.63,0,0,1,1.66-1.15,5.68,5.68,0,0,1,2.15-.39,5.26,5.26,0,0,1,2.17.4,4.16,4.16,0,0,1,1.47,1.08,4.32,4.32,0,0,1,.85,1.58,6.66,6.66,0,0,1,.27,1.9Zm-1.53-.41a3.73,3.73,0,0,0-.83-2.67,3.18,3.18,0,0,0-2.5-1,3.44,3.44,0,0,0-1.49.31,3.25,3.25,0,0,0-1.09.8,3.57,3.57,0,0,0-.68,1.15,4.9,4.9,0,0,0-.27,1.37Z" transform="translate(-19.6 -217.31)"/>
    <path class="a" d="M711.89,326.75a2.63,2.63,0,0,1,0,.3.88.88,0,0,1,0,.2.36.36,0,0,1-.08.12.16.16,0,0,1-.12,0,.69.69,0,0,1-.26-.05l-.35-.11-.43-.12a2.89,2.89,0,0,0-.53-.05,1.74,1.74,0,0,0-.66.14,2.59,2.59,0,0,0-.68.44,5.39,5.39,0,0,0-.74.8,12.34,12.34,0,0,0-.87,1.22v7.25a.22.22,0,0,1,0,.13.19.19,0,0,1-.12.09.85.85,0,0,1-.22.06,2,2,0,0,1-.37,0,1.78,1.78,0,0,1-.35,0,.83.83,0,0,1-.23-.06.19.19,0,0,1-.12-.09.33.33,0,0,1,0-.13V326.2a.33.33,0,0,1,0-.13.32.32,0,0,1,.12-.1l.21-.06h.7l.21.06a.31.31,0,0,1,.1.1.31.31,0,0,1,0,.13v1.7a10.67,10.67,0,0,1,.9-1.09,4.73,4.73,0,0,1,.79-.65,2.67,2.67,0,0,1,.73-.31,2.92,2.92,0,0,1,.73-.08h.37l.45.07a3.52,3.52,0,0,1,.44.11,1.2,1.2,0,0,1,.27.12l.1.1a.23.23,0,0,1,0,.1.74.74,0,0,1,0,.18Z" transform="translate(-19.6 -217.31)"/>
    <path class="a" d="M716.15,322.59a1,1,0,0,1-.22.77,1.58,1.58,0,0,1-1.52,0,1.06,1.06,0,0,1-.21-.77,1.08,1.08,0,0,1,.21-.77,1.16,1.16,0,0,1,.78-.2,1.1,1.1,0,0,1,.75.2A1,1,0,0,1,716.15,322.59Zm-.23,14.34a.22.22,0,0,1,0,.13.19.19,0,0,1-.12.09.75.75,0,0,1-.22.06,2,2,0,0,1-.37,0,1.78,1.78,0,0,1-.35,0,.94.94,0,0,1-.23-.06.19.19,0,0,1-.12-.09.31.31,0,0,1,0-.13V326.2a.31.31,0,0,1,0-.13.32.32,0,0,1,.12-.1l.23-.06h.72l.22.06a.32.32,0,0,1,.12.1.22.22,0,0,1,0,.13Z" transform="translate(-19.6 -217.31)"/>
    <path class="a" d="M728,335.34a1.93,1.93,0,0,1,0,.25,1,1,0,0,1,0,.2.51.51,0,0,1-.07.15,2.26,2.26,0,0,1-.2.22,4.32,4.32,0,0,1-.54.39,5.72,5.72,0,0,1-.86.41,5.82,5.82,0,0,1-1,.29,5.28,5.28,0,0,1-1.13.11A5.36,5.36,0,0,1,722,337a3.89,3.89,0,0,1-1.52-1.1,5.05,5.05,0,0,1-.92-1.79,8.27,8.27,0,0,1-.32-2.45,8.09,8.09,0,0,1,.39-2.67,4.91,4.91,0,0,1,1.08-1.83,4.37,4.37,0,0,1,1.6-1,5.76,5.76,0,0,1,2-.33,5.35,5.35,0,0,1,1.08.1,5.16,5.16,0,0,1,.94.26,4.14,4.14,0,0,1,.76.38,5.76,5.76,0,0,1,.5.36l.21.23a.91.91,0,0,1,.09.17,1.12,1.12,0,0,1,0,.21,2,2,0,0,1,0,.26.82.82,0,0,1-.1.48.28.28,0,0,1-.23.14.74.74,0,0,1-.43-.21,7.83,7.83,0,0,0-.66-.47,5.16,5.16,0,0,0-1-.47,3.83,3.83,0,0,0-1.35-.21,2.93,2.93,0,0,0-2.5,1.18,5.73,5.73,0,0,0-.88,3.43,7.28,7.28,0,0,0,.24,2,4.21,4.21,0,0,0,.68,1.41,2.85,2.85,0,0,0,1.08.84,3.44,3.44,0,0,0,1.43.28,3.58,3.58,0,0,0,1.32-.23,5.48,5.48,0,0,0,1-.49c.28-.19.52-.35.7-.5a.88.88,0,0,1,.42-.23.25.25,0,0,1,.13,0,.39.39,0,0,1,.1.14.93.93,0,0,1,0,.21A1.28,1.28,0,0,1,728,335.34Z" transform="translate(-19.6 -217.31)"/>
    <path class="a" d="M740.08,336.93a.22.22,0,0,1,0,.13.2.2,0,0,1-.11.09.94.94,0,0,1-.23.06,1.78,1.78,0,0,1-.35,0,2,2,0,0,1-.37,0,.94.94,0,0,1-.23-.06.2.2,0,0,1-.11-.09.22.22,0,0,1,0-.13v-6.37a7,7,0,0,0-.16-1.61,3.1,3.1,0,0,0-.49-1.07,2.33,2.33,0,0,0-.83-.69,2.73,2.73,0,0,0-1.18-.24,3.06,3.06,0,0,0-1.72.58,9.32,9.32,0,0,0-1.8,1.71v7.69a.33.33,0,0,1,0,.13.27.27,0,0,1-.12.09.85.85,0,0,1-.22.06,2,2,0,0,1-.37,0,1.94,1.94,0,0,1-.36,0,1.09,1.09,0,0,1-.23-.06.19.19,0,0,1-.12-.09.31.31,0,0,1,0-.13V321a.28.28,0,0,1,0-.13.2.2,0,0,1,.12-.1.7.7,0,0,1,.23-.06,1.94,1.94,0,0,1,.36,0,2,2,0,0,1,.37,0,.58.58,0,0,1,.22.06.29.29,0,0,1,.12.1.28.28,0,0,1,0,.13v6.69a6.76,6.76,0,0,1,1.84-1.43,4.16,4.16,0,0,1,1.85-.45,4.37,4.37,0,0,1,1.87.35,3.35,3.35,0,0,1,1.22,1,3.7,3.7,0,0,1,.68,1.41,8.39,8.39,0,0,1,.2,1.94Z" transform="translate(-19.6 -217.31)"/>
    <path class="a" d="M749.38,336.29a1.49,1.49,0,0,1,0,.4.48.48,0,0,1-.14.24.84.84,0,0,1-.27.17,3,3,0,0,1-.42.13l-.5.08-.51,0a4.21,4.21,0,0,1-1.42-.21,2.25,2.25,0,0,1-1-.65,2.6,2.6,0,0,1-.54-1.09,6.14,6.14,0,0,1-.17-1.57v-6.67h-1.68a.32.32,0,0,1-.28-.15.73.73,0,0,1-.1-.44,1.12,1.12,0,0,1,0-.27.62.62,0,0,1,.07-.19.3.3,0,0,1,.28-.14h1.68v-2.63a.25.25,0,0,1,0-.13.2.2,0,0,1,.12-.1.64.64,0,0,1,.23-.06,1.78,1.78,0,0,1,.35,0,2,2,0,0,1,.37,0,.64.64,0,0,1,.23.06.29.29,0,0,1,.12.1.25.25,0,0,1,0,.13V326H749a.41.41,0,0,1,.16,0,.38.38,0,0,1,.11.11.64.64,0,0,1,.08.19,1.14,1.14,0,0,1,0,.27.73.73,0,0,1-.1.44.32.32,0,0,1-.27.15h-3.12v6.48a3.81,3.81,0,0,0,.37,1.86,1.4,1.4,0,0,0,1.34.64,2.23,2.23,0,0,0,.54-.06,2.79,2.79,0,0,0,.43-.13,2.63,2.63,0,0,0,.32-.13.6.6,0,0,1,.23-.06.2.2,0,0,1,.11,0s.06,0,.08.09a.34.34,0,0,1,.05.16A1,1,0,0,1,749.38,336.29Z" transform="translate(-19.6 -217.31)"/>
    <path class="a" d="M759.82,322.59a1.06,1.06,0,0,1-.21.77,1.6,1.6,0,0,1-1.53,0,1.06,1.06,0,0,1-.2-.77,1.08,1.08,0,0,1,.21-.77,1.15,1.15,0,0,1,.77-.2,1.07,1.07,0,0,1,.75.2A1,1,0,0,1,759.82,322.59Zm-.22,14.34a.33.33,0,0,1,0,.13.27.27,0,0,1-.12.09.85.85,0,0,1-.22.06,2,2,0,0,1-.37,0,1.94,1.94,0,0,1-.36,0,1.09,1.09,0,0,1-.23-.06.19.19,0,0,1-.12-.09.31.31,0,0,1,0-.13V326.2a.31.31,0,0,1,0-.13.32.32,0,0,1,.12-.1l.23-.06h.73l.22.06a.63.63,0,0,1,.12.1.33.33,0,0,1,0,.13Z" transform="translate(-19.6 -217.31)"/>
    <path class="a" d="M772.9,336.93a.22.22,0,0,1,0,.13.19.19,0,0,1-.12.09.85.85,0,0,1-.22.06,1.94,1.94,0,0,1-.36,0,1.84,1.84,0,0,1-.36,0,.83.83,0,0,1-.23-.06.27.27,0,0,1-.12-.09.33.33,0,0,1,0-.13v-6.37a6.45,6.45,0,0,0-.16-1.61,3.29,3.29,0,0,0-.48-1.07,2.42,2.42,0,0,0-.83-.69,2.73,2.73,0,0,0-1.18-.24,3,3,0,0,0-1.72.58,9.34,9.34,0,0,0-1.81,1.71v7.69a.22.22,0,0,1,0,.13.19.19,0,0,1-.12.09.75.75,0,0,1-.22.06,2,2,0,0,1-.37,0,1.78,1.78,0,0,1-.35,0,.94.94,0,0,1-.23-.06.19.19,0,0,1-.12-.09.31.31,0,0,1,0-.13V326.2a.31.31,0,0,1,0-.13.32.32,0,0,1,.12-.1l.22-.06h.69l.21.06a.31.31,0,0,1,.1.1.22.22,0,0,1,0,.13v1.52a6.79,6.79,0,0,1,1.9-1.49,4.18,4.18,0,0,1,1.86-.46,4.37,4.37,0,0,1,1.87.35,3.3,3.3,0,0,1,1.23,1,3.69,3.69,0,0,1,.67,1.41,7.83,7.83,0,0,1,.21,1.94Z" transform="translate(-19.6 -217.31)"/>
    <path class="a" d="M792.15,336.57a1.11,1.11,0,0,1,0,.28.45.45,0,0,1-.1.18.33.33,0,0,1-.14.1l-.15,0h-8.18l-.14,0a.38.38,0,0,1-.13-.1.61.61,0,0,1-.1-.18,1.11,1.11,0,0,1,0-.28,1.09,1.09,0,0,1,0-.26,2,2,0,0,1,.09-.2.43.43,0,0,1,.29-.16h3.58V323.37l-3.41,2a.94.94,0,0,1-.33.14.26.26,0,0,1-.2,0,.34.34,0,0,1-.1-.2,2.88,2.88,0,0,1,0-.32,2.1,2.1,0,0,1,0-.27,1,1,0,0,1,0-.2.71.71,0,0,1,.1-.14.58.58,0,0,1,.14-.12l3.86-2.34.1-.05.15,0,.19,0h.24l.36,0,.23.06a.28.28,0,0,1,.13.1.28.28,0,0,1,0,.13V336h3.06a.34.34,0,0,1,.17.05.3.3,0,0,1,.14.11.61.61,0,0,1,.09.2A1.09,1.09,0,0,1,792.15,336.57Z" transform="translate(-19.6 -217.31)"/>
    <path class="a" d="M805.11,329A15.79,15.79,0,0,1,805,331a10.54,10.54,0,0,1-.45,2,8.16,8.16,0,0,1-.82,1.74,5.84,5.84,0,0,1-1.27,1.4,6,6,0,0,1-1.78.93,7.6,7.6,0,0,1-2.34.33,8.57,8.57,0,0,1-1-.06c-.33,0-.62-.1-.88-.15a5.75,5.75,0,0,1-.64-.19,1.49,1.49,0,0,1-.37-.2.56.56,0,0,1-.17-.25,1.15,1.15,0,0,1-.05-.4,2.44,2.44,0,0,1,0-.29.42.42,0,0,1,.05-.17.2.2,0,0,1,.09-.09l.14,0a1.14,1.14,0,0,1,.37.09,4.91,4.91,0,0,0,.62.21c.25.07.54.13.88.2a6.83,6.83,0,0,0,1.16.09,4.73,4.73,0,0,0,2.25-.49,4.5,4.5,0,0,0,1.55-1.31,5.88,5.88,0,0,0,.91-1.92,9.45,9.45,0,0,0,.34-2.3,9.7,9.7,0,0,1-1.69.69,7.85,7.85,0,0,1-2.27.3,6.44,6.44,0,0,1-2.31-.36,3.87,3.87,0,0,1-1.48-1,3.41,3.41,0,0,1-.78-1.42,6,6,0,0,1-.23-1.72,5.71,5.71,0,0,1,.29-1.84,4.32,4.32,0,0,1,.91-1.6,4.59,4.59,0,0,1,1.64-1.12,6.07,6.07,0,0,1,2.43-.43,5.47,5.47,0,0,1,1.69.24,4.16,4.16,0,0,1,1.3.7,4,4,0,0,1,1,1.09,6.17,6.17,0,0,1,.65,1.47,10.2,10.2,0,0,1,.35,1.78A16.53,16.53,0,0,1,805.11,329Zm-1.59-.12a13.93,13.93,0,0,0-.24-2.79,5.37,5.37,0,0,0-.72-1.85,2.76,2.76,0,0,0-1.15-1,3.73,3.73,0,0,0-1.57-.32,3.52,3.52,0,0,0-1.59.33,3,3,0,0,0-1.07.85,3.4,3.4,0,0,0-.61,1.18,4.45,4.45,0,0,0-.2,1.29,5,5,0,0,0,.18,1.38,2.8,2.8,0,0,0,.57,1.08,2.75,2.75,0,0,0,1,.71,4.37,4.37,0,0,0,1.6.25,7.41,7.41,0,0,0,2.05-.29A6.07,6.07,0,0,0,803.52,328.83Z" transform="translate(-19.6 -217.31)"/>
    <path class="a" d="M817.84,332.27a5.32,5.32,0,0,1-.42,2.17,4.41,4.41,0,0,1-1.2,1.6,5.37,5.37,0,0,1-1.85,1,8.87,8.87,0,0,1-3.79.22,9.93,9.93,0,0,1-1.2-.26,8.48,8.48,0,0,1-.86-.29,1.73,1.73,0,0,1-.41-.23.46.46,0,0,1-.12-.13l-.06-.13a.9.9,0,0,1,0-.19c0-.07,0-.16,0-.27a2.11,2.11,0,0,1,0-.26.59.59,0,0,1,.06-.2.32.32,0,0,1,.11-.12.23.23,0,0,1,.14,0,1,1,0,0,1,.39.15,5.81,5.81,0,0,0,.73.34,8,8,0,0,0,1.14.33,6.9,6.9,0,0,0,1.61.16,6.21,6.21,0,0,0,1.65-.21,3.57,3.57,0,0,0,1.32-.66,3.12,3.12,0,0,0,.88-1.14,4,4,0,0,0,.32-1.68A3.47,3.47,0,0,0,816,331a2.52,2.52,0,0,0-.83-1,3.78,3.78,0,0,0-1.42-.62,9,9,0,0,0-2-.2,9.45,9.45,0,0,0-1.31.08,7,7,0,0,1-1,.07.71.71,0,0,1-.48-.14.84.84,0,0,1-.15-.58v-6a.66.66,0,0,1,.2-.51.74.74,0,0,1,.52-.19h6.87a.58.58,0,0,1,.18,0,.37.37,0,0,1,.15.13.75.75,0,0,1,.1.2,1.12,1.12,0,0,1,0,.27.89.89,0,0,1-.12.47.39.39,0,0,1-.34.18h-6.18V328a8.83,8.83,0,0,1,.91-.07h1.13a8.66,8.66,0,0,1,2.47.32,5.08,5.08,0,0,1,1.75.91,3.69,3.69,0,0,1,1,1.39A4.37,4.37,0,0,1,817.84,332.27Z" transform="translate(-19.6 -217.31)"/>
    <path class="a" d="M831.33,332.28a5.86,5.86,0,0,1-.3,1.84,4.52,4.52,0,0,1-.94,1.63,5,5,0,0,1-1.67,1.16,6,6,0,0,1-2.45.45,5.42,5.42,0,0,1-1.68-.23,3.94,3.94,0,0,1-1.29-.66,3.71,3.71,0,0,1-.93-1.07,6.2,6.2,0,0,1-.61-1.45,10.16,10.16,0,0,1-.34-1.79A19.85,19.85,0,0,1,821,330a15.52,15.52,0,0,1,.13-2,10.33,10.33,0,0,1,.42-2,8.21,8.21,0,0,1,.79-1.73,5.28,5.28,0,0,1,1.23-1.39,5.84,5.84,0,0,1,1.73-.93,7.4,7.4,0,0,1,2.31-.33,7.19,7.19,0,0,1,.92,0,7,7,0,0,1,.86.14,3.85,3.85,0,0,1,.66.18,2.09,2.09,0,0,1,.35.18.4.4,0,0,1,.13.13l.06.13s0,.1,0,.16,0,.13,0,.21a1.77,1.77,0,0,1,0,.24.48.48,0,0,1,0,.18.31.31,0,0,1-.09.11.34.34,0,0,1-.16,0,1.3,1.3,0,0,1-.37-.08l-.57-.19a6.08,6.08,0,0,0-.83-.19,6.47,6.47,0,0,0-1.15-.09,4.42,4.42,0,0,0-2.16.5,4.27,4.27,0,0,0-1.49,1.34,6,6,0,0,0-.87,1.94,10.3,10.3,0,0,0-.33,2.31c.23-.12.49-.25.78-.38a7.38,7.38,0,0,1,.94-.33,10.31,10.31,0,0,1,1.09-.25,7.73,7.73,0,0,1,1.21-.09,6.4,6.4,0,0,1,2.26.34,3.76,3.76,0,0,1,1.46.94,3.4,3.4,0,0,1,.78,1.4A5.92,5.92,0,0,1,831.33,332.28Zm-1.59.14a5.76,5.76,0,0,0-.16-1.36A2.52,2.52,0,0,0,829,330a2.55,2.55,0,0,0-1-.68,4.35,4.35,0,0,0-1.59-.25,6.2,6.2,0,0,0-1,.09,6.74,6.74,0,0,0-1,.25,6.41,6.41,0,0,0-.93.36,5.29,5.29,0,0,0-.79.44,13.74,13.74,0,0,0,.23,2.79,5.27,5.27,0,0,0,.68,1.83,2.62,2.62,0,0,0,1.11,1,3.76,3.76,0,0,0,1.55.3,3.47,3.47,0,0,0,1.6-.34,3.21,3.21,0,0,0,1.11-.87,3.48,3.48,0,0,0,.64-1.2A4.26,4.26,0,0,0,829.74,332.42Z" transform="translate(-19.6 -217.31)"/>
  </g>
</svg>
