<?xml version="1.0" standalone="no"?>
<!DOCTYPE svg PUBLIC "-//W3C//DTD SVG 20010904//EN"
 "http://www.w3.org/TR/2001/REC-SVG-20010904/DTD/svg10.dtd">
<svg version="1.0" xmlns="http://www.w3.org/2000/svg"
 width="629.000000pt" height="629.000000pt" viewBox="0 0 629.000000 629.000000"
 preserveAspectRatio="xMidYMid meet">
<metadata>
Created by potrace 1.11, written by Peter Selinger 2001-2013
</metadata>
<g transform="translate(0.000000,629.000000) scale(0.100000,-0.100000)"
fill="#000000" stroke="none">
<path d="M3050 4564 c-293 -25 -430 -46 -645 -99 -499 -122 -1017 -371 -1460
-703 -319 -239 -644 -559 -873 -859 -34 -45 -62 -86 -62 -92 0 -33 37 -4 182
145 196 201 362 348 563 499 601 451 1282 735 1960 816 130 16 443 16 570 0
228 -28 433 -81 643 -165 525 -212 867 -578 1117 -1196 34 -82 48 -106 64
-108 25 -4 26 5 10 146 -80 720 -535 1294 -1201 1513 -125 41 -262 72 -398 89
-91 11 -396 20 -470 14z"/>
<path d="M2980 4150 c-81 -12 -159 -30 -164 -39 -3 -4 24 -28 59 -54 135 -100
342 -308 469 -470 85 -110 134 -187 172 -276 l32 -73 15 28 c21 40 72 194 96
289 27 103 48 228 56 337 l7 86 -43 32 c-118 88 -298 140 -499 145 -74 2 -164
0 -200 -5z"/>
<path d="M2630 4028 c-210 -119 -384 -345 -471 -611 -12 -37 -20 -70 -17 -72
3 -3 27 4 54 16 291 127 798 224 999 191 33 -5 62 -8 64 -6 6 6 -72 103 -155
192 -94 101 -247 231 -335 283 -36 21 -69 39 -75 39 -5 0 -34 -14 -64 -32z"/>
<path d="M3805 3874 c-19 -161 -84 -422 -152 -604 -46 -125 -135 -298 -185
-361 -22 -28 -38 -52 -36 -55 2 -2 33 1 69 6 196 31 417 98 569 175 l88 44 7
53 c12 98 -21 270 -80 408 -51 123 -152 274 -233 354 l-40 38 -7 -58z"/>
<path d="M6228 3468 c-61 -75 -314 -323 -430 -423 -781 -672 -1749 -1059
-2578 -1032 -209 7 -344 26 -546 77 -261 66 -514 180 -709 318 -108 77 -291
256 -375 366 -134 177 -254 396 -345 629 -29 73 -43 97 -57 97 -23 0 -24 -45
-3 -204 102 -777 652 -1367 1420 -1521 162 -33 296 -45 486 -45 1150 0 2367
652 3153 1688 43 56 47 66 34 78 -13 13 -19 10 -50 -28z"/>
<path d="M2740 3440 c-200 -37 -427 -112 -546 -181 -63 -36 -70 -57 -60 -184
16 -214 143 -482 311 -660 l38 -40 18 117 c54 352 192 733 335 921 42 55 45
54 -96 27z"/>
<path d="M2729 3024 c-45 -116 -62 -167 -89 -266 -36 -135 -60 -288 -60 -380
0 -64 1 -68 33 -92 49 -37 171 -91 262 -116 111 -30 353 -39 481 -16 149 26
148 24 68 81 -101 71 -396 371 -493 500 -45 61 -105 155 -132 210 -28 55 -52
102 -54 104 -3 2 -10 -9 -16 -25z"/>
<path d="M4090 2945 c-62 -32 -240 -90 -380 -125 -224 -54 -302 -64 -501 -65
l-186 0 46 -60 c110 -142 339 -349 476 -430 l41 -24 59 31 c160 82 306 239
411 444 35 71 94 225 94 250 0 8 -15 3 -60 -21z"/>
</g>
</svg>
